<?xml version="1.0" standalone="no"?>
<!DOCTYPE svg PUBLIC "-//W3C//DTD SVG 1.1//EN" "http://www.w3.org/Graphics/SVG/1.1/DTD/svg11.dtd">
<svg xmlns="http://www.w3.org/2000/svg">
<metadata>Copyright (C) 2015 by original authors @ fontello.com</metadata>
<defs>
<font id="fontello" horiz-adv-x="1000" >
<font-face font-family="fontello" font-weight="400" font-stretch="normal" units-per-em="1000" ascent="850" descent="-150" />
<missing-glyph horiz-adv-x="1000" />
<glyph glyph-name="notify" unicode="&#xe800;" d="m45 806v-682h228v-228l319 228h363v682h-910z m807-600h-279l-246-175v175h-175v525h700v-525z" horiz-adv-x="1000" />
<glyph glyph-name="user" unicode="&#xe801;" d="m954-115h-908c0 0-7 183 17 221 27 43 119 69 210 107 91 38 112 51 112 51l1 87c0 0-34 26-44 108-22-6-44 32-45 52-1 19 3 73 29 67-6 40-10 77-8 96 7 70 76 143 182 143 106 0 175-73 182-143 2-19-2-56-8-96 26 6 30-48 29-67-1-20-23-58-45-52-10-82-44-108-44-108l1-87c0 0 21-13 112-51 91-38 183-64 210-107 24-38 17-221 17-221" horiz-adv-x="1000" />
<glyph glyph-name="view" unicode="&#xe802;" d="m45 367v-34c210-351 700-351 910 0v34c-210 351-700 351-910 0z m455-227c-116 0-210 94-210 210s94 210 210 210c116 0 210-94 210-210s-94-210-210-210z m0 315c-58 0-105-47-105-105 0-58 47-105 105-105 58 0 105 47 105 105 0 58-47 105-105 105z" horiz-adv-x="1000" />
<glyph glyph-name="search" unicode="&#xe803;" d="m945 28l-159 158c40 63 64 138 64 218 0 222-181 403-404 403-222 0-403-181-403-403 0-223 181-404 403-404 80 0 155 24 218 64l158-159c12-11 30-11 41 0l82 82c11 11 11 29 0 41z m-499 88c-158 0-288 129-288 288 0 158 130 288 288 288 159 0 288-130 288-288 0-159-129-288-288-288z" horiz-adv-x="1000" />
<glyph glyph-name="admin" unicode="&#xe804;" d="m259 336l-149-121 61-13 133 113c258 4 415 103 415 103l-91 78c0 0 161 13 201-6 36 18 105 82 126 276-467 68-584-190-696-430z m68 27l-2 2c43 46 300 308 567 365-147-52-494-313-565-367z m116-439c0-32-25-57-57-57h-284c-31 0-57 25-57 57v114c0 31 26 57 57 57h57c0 31 25 56 57 56h57c31 0 56-25 56-56h57c32 0 57-26 57-57v-114z" horiz-adv-x="1000" />
<glyph glyph-name="alert" unicode="&#xe805;" d="m500 73c-21 0-41 2-61 4-121-148-308-136-308-136s98 70 107 197c-117 63-193 167-193 284 0 193 204 349 455 349 251 0 455-156 455-349 0-192-204-349-455-349" horiz-adv-x="1000" />
<glyph glyph-name="dollar" unicode="&#xe806;" d="m558 425v144c47-11 94-33 131-68l83 111c-57 53-129 84-214 93v100h-98v-97c-142-15-226-105-226-211 0-143 118-184 226-210v-162c-71 12-128 49-167 90l-82-117c58-57 139-99 249-109v-94h98v94c154 16 231 106 231 223 0 143-122 185-231 213z m-98 24c-43 13-73 29-73 59 0 36 27 61 73 67v-126z m98-326v140c46-15 79-31 79-66 0-34-25-64-79-74z" horiz-adv-x="1000" />
<glyph glyph-name="upload" unicode="&#xe807;" d="m500 805c-251 0-455-204-455-455 0-251 204-455 455-455 251 0 455 204 455 455 0 251-204 455-455 455z m152-455v-227h-304v227l-151 0 303 304 303-304-151 0z" horiz-adv-x="1000" />
<glyph glyph-name="power" unicode="&#xe808;" d="m438 743c0 34 28 62 62 62 34 0 62-28 62-62v-337c0-34-28-62-62-62-34 0-62 28-62 62v337z m62-848c-234 0-425 190-425 425 0 136 67 265 178 345 28 20 67 13 86-15 20-27 14-66-14-86-79-56-126-148-126-244 0-166 135-302 301-302s301 136 301 302c0 96-47 188-126 244-28 20-34 59-14 86 19 28 58 35 86 15 111-80 178-209 178-345 0-235-191-425-425-425" horiz-adv-x="1000" />
<glyph glyph-name="copy" unicode="&#xe809;" d="m680 805h-407v-171h-171v-739h626v171h170v504l-218 235z m-20-824h-492v572h105v-487h387v-85z m166 144h-481v599h269v-203h212v-396z" horiz-adv-x="1000" />
<glyph glyph-name="right" unicode="&#xe80a;" d="m938 641l-582-715-292 332c-30 33-24 83 14 110 39 27 94 21 124-13l148-168 446 546c28 35 83 43 123 18 39-26 48-75 19-110" horiz-adv-x="1000" />
<glyph glyph-name="thumb" unicode="&#xe80b;" d="m112 245c4 37 37 64 74 60l101-10 0 3-80 8c-32 4-56 37-52 74 4 37 33 65 66 61l268-27 38-1c0 0-55 25-13 224 42 199 154 124 154 124s1-170 7-194c6-24 137-278 137-278 0-13 81-27 81-40-1-117 0-217 0-339-87 23-134-45-319-45-61 0-136 10-200 20l-167 17c-29 3-49 36-46 73 3 29 20 52 41 59l-21 3c-33 3-57 36-53 73 3 32 26 55 53 60l-9 1c-37 3-64 37-60 74" horiz-adv-x="1000" />
<glyph glyph-name="calender" unicode="&#xe80c;" d="m813 691v85c0 16-13 29-29 29h-113c-16 0-29-13-29-29v-85h-284v85c0 16-13 29-29 29h-113c-16 0-29-13-29-29v-85h-114v-796h854v796h-114z m-114 57h57v-114h-57v114z m-455 0h57v-114h-57v114z m626-797h-740v569h740v-569z m-357 484h306v-83l-175-315h-122l175 305h-184v93z m-174 3h81v-401h-109v298l-67-16-21 86 116 33z" horiz-adv-x="1000" />
<glyph glyph-name="reports" unicode="&#xe80d;" d="m637 805h-535v-910h796v649l-261 261z m147-796h-568v682h374l194-194v-488z m-227 216l170 171v-81l-170-170-114 113-171-170v80l171 171 114-114z" horiz-adv-x="1000" />
<glyph glyph-name="ffrwd" unicode="&#xe80e;" d="m544-78l-499 428 499 428v-219l-243-209 243-209v-219z m411 856l-499-428 499-428v219l-243 209 243 209v219z" horiz-adv-x="1000" />
<glyph glyph-name="fback" unicode="&#xe80f;" d="m456 778l499-428-499-428v219l244 209-244 209v219z m-411-856l499 428-499 428v-219l244-209-244-209v-219z" horiz-adv-x="1000" />
<glyph glyph-name="closeb" unicode="&#xe810;" d="m955 96l-201-201-254 254-254-254-201 201 254 254-254 254 201 201 254-254 254 254 201-201-254-254 254-254z" horiz-adv-x="1000" />
<glyph glyph-name="launch" unicode="&#xe811;" d="m752-89l-90 692-395-692h-222l531 878h234l145-878h-203z" horiz-adv-x="1000" />
<glyph glyph-name="edit" unicode="&#xe812;" d="m187-86l-149-21 21 149 22 149 127-128 128-128-149-21z m617 491l-43 42-383-383-42 42 383 384-86 85-383-383-42 42 383 383-43 43-425-426 255-255 426 426z m134 126c22 23 21 60-2 84l-170 170c-24 23-61 24-84 2l-4-6-1 1-82-82 256-256 81 82-1 1 7 4" horiz-adv-x="1000" />
<glyph glyph-name="add" unicode="&#xe813;" d="m630-105h-260v325h-325v260h325v325h260v-325h325v-260h-325v-325z" horiz-adv-x="1000" />
<glyph glyph-name="close" unicode="&#xe814;" d="m699-86l-199 294-200-294h-255l311 448-293 424h256l181-267 179 267h256l-290-424 310-448h-256z" horiz-adv-x="1000" />
<glyph glyph-name="downarrow" unicode="&#xe815;" d="m500-54l-455 808h910l-455-808z" horiz-adv-x="1000" />
<glyph glyph-name="leftarrow" unicode="&#xe816;" d="m96 350l808 455v-910l-808 455z" horiz-adv-x="1000" />
<glyph glyph-name="rightarrow" unicode="&#xe817;" d="m904 350l-808-455v910l808-455z" horiz-adv-x="1000" />
<glyph glyph-name="uparrow" unicode="&#xe818;" d="m500 754l455-808h-910l455 808z" horiz-adv-x="1000" />
<glyph glyph-name="eventdetail" unicode="&#xe819;" d="m911-78c0-17-13-30-30-30h-805c-17 0-31 13-31 30v62c0 17 14 31 31 31h805c17 0 30-14 30-31v-62z m-558 155c17 0 40 11 50 24l7 9c11 14 10 34-2 47l-94 98c-12 12-31 12-42-1l-5-7c-11-13-30-34-42-46l-95-101c-11-13-7-23 10-23h213z m581 575c30 38 28 93-7 128-35 35-91 38-129 8l-1 0-7-8c0 0-1 0-1 0 0 0 0 0 0 0l-451-451 138-137 451 451 8 8-1 1z" horiz-adv-x="1000" />
<glyph glyph-name="sideevent" unicode="&#xe81a;" d="m557 464v-57h227v-228h-227v-284h-114v284h-284l-114 114 114 114h284v57h-227v227h227v114h114v-114h284l114-113-114-114h-284z" horiz-adv-x="1000" />
<glyph glyph-name="sponsors" unicode="&#xe81b;" d="m642 464c0-79-64-142-142-142-78 0-142 63-142 142s64 142 142 142c78 0 142-64 142-142z m137-56l46-50-67-13c-16-34-38-64-65-89l-10-8 45-353-228 228-227-228 44 353-10 8c-27 25-49 55-65 89l-67 13 46 50c-3 18-5 37-5 56 0 19 2 37 5 55l-46 50 67 14c16 34 38 64 65 89l-8 68 63-29c32 18 67 29 104 34l34 60 34-60c37-5 72-16 104-34l63 29-8-68c27-25 49-55 65-89l67-14-46-50c3-18 5-36 5-55 0-19-2-38-5-56z m-80 56c0 110-89 199-199 199-110 0-199-89-199-199 0-110 89-199 199-199 110 0 199 89 199 199z" horiz-adv-x="1000" />
<glyph glyph-name="program" unicode="&#xe81c;" d="m941 638l-112-111-124 26-26 125 113 111c-18 5-36 8-55 9-118 0-213-95-214-213 0-39 11-75 29-107l-181-180c-31 19-67 30-106 31-118 0-214-95-214-213 0-19 3-37 8-54l112 112 124-27 26-124-112-112c17-5 35-8 54-9 118 0 214 95 214 213 0 35-9 68-24 97l185 184c30-15 62-24 97-24 118-1 214 94 214 212 0 19-3 37-8 54m-876 150l18 17 109-60 57-57 42-71 396-399c0 0 32 32 45 44 12 12 23 2 23 2s7-7 17-18c11-10 0-56 0-56l28-29c0 0 133-133 145-145 11-11 10-46-1-56-10-11-28-29-28-29s-18-17-28-28c-11-10-45-11-57 0-11 12-144 145-144 145l-28 29c0 0-46-11-57 0-10 11-17 18-17 18s-11 10 1 23c13 12 45 44 45 44l-397 399-70 42-57 57-60 110 18 18z" horiz-adv-x="1000" />
<glyph glyph-name="customize" unicode="&#xe81d;" d="m557 777c-341 0-512-342-512-569 0-57 114-171 171 0 25 76 170 57 170-57 0-127 57-228 171-228 341 0 398 285 398 455 0 171-57 399-398 399z m-284-413c-40 0-72 32-72 71 0 40 32 71 72 71 39 0 71-31 71-71 0-39-32-71-71-71z m128 214c0 39 31 71 71 71 39 0 71-32 71-71 0-40-32-72-71-72-40 0-71 32-71 72z m184-498c-55 0-99 45-99 99 0 55 44 100 99 100 55 0 100-45 100-100 0-54-45-99-100-99z m171 171c-24 0-43 19-43 42s19 43 43 43c24 0 43-19 43-43s-19-42-43-42z m-57 170c-55 0-99 45-99 100s44 99 99 99c55 0 100-44 100-99s-45-100-100-100z" horiz-adv-x="1000" />
<glyph glyph-name="payment" unicode="&#xe81e;" d="m892 123l-44 398c-4 31-32 57-64 57h-120v56h120v171h-341v-171h121v-56h-348c-31 0-60-26-63-57l-45-398h-63v-228h910v228h-63z m-221 341h57v-57h-57v57z m0-114h57v-57h-57v57z m0-114h57v-57h-57v57z m-171 455v57h228v-57h-228z m57-227h57v-57h-57v57z m0-114h57v-57h-57v57z m0-114h57v-57h-57v57z m-341 228h227v-114h-227v114z m682-455h-796v57h796v-57z" horiz-adv-x="1000" />
<glyph glyph-name="delete" unicode="&#xe81f;" d="m814-78c0-16-12-29-28-29h-569c-15 0-28 13-28 29v540h113v-455h57v455h114v-455h57v455h114v-455h57v455h113v-540z m114 654c0-31-25-57-57-57h-739c-31 0-57 26-57 57v57c0 31 26 57 57 57h227v85c0 16 13 28 29 28h227c16 0 29-12 29-28v-85h227c32 0 57-26 57-57v-57z" horiz-adv-x="1000" />
<glyph glyph-name="quick_list" unicode="&#xe820;" d="m638 803h-535v-910h796v649l-261 261z m147-796h-569v682h375l194-194v-488z m-409 549h238v-32h-238v32z m-55 0h32v-32h-32v32z m55-128h305v-32h-305v32z m-55 0h32v-32h-32v32z m55-128h238v-32h-238v32z m-55 0h32v-32h-32v32z m55-128h305v-32h-305v32z m-55 0h32v-32h-32v32z" horiz-adv-x="1000" />
<glyph glyph-name="home" unicode="&#xe821;" d="m790 544v208h-118v-118l-172 131-455-347 72-94 49 38v-431h669v431l49-38 71 94-165 126z m-21-547h-151v249h-236v-249h-151v406l269 206 269-206v-406z" horiz-adv-x="1000" />
<glyph glyph-name="resources" unicode="&#xe822;" d="m501 547c0 142-317 171-455 171v-626h28c10 0 19 0 29 0v-57c113 0 341 34 341-57h114c0 91 227 57 341 57v57c9 0 18 0 28 0h29v626c-139 0-455-29-455-171z m-57-423c-83 49-239 53-341 54v483c28 0 53-1 77-3l14-1 6 0c112-8 230-32 242-99l2-11v-423z m455 54c-103-1-258-5-341-54v423c0 38 60 111 341 114v-483z" horiz-adv-x="1000" />
<glyph glyph-name="radio-checked" unicode="&#xe823;" d="m702 350c0-112-91-202-202-202-112 0-202 90-202 202s90 201 202 201c111 0 202-90 202-201m253 0c0-252-204-456-455-456-251 0-455 204-455 456 0 251 204 455 455 455 251 0 455-204 455-455z m-102 0c0 194-158 352-353 352-195 0-353-158-353-352 0-195 158-353 353-353 195 0 353 158 353 353z" horiz-adv-x="1000" />
<glyph glyph-name="checkbox-checked" unicode="&#xe824;" d="m46 804v-910h910v910h-910z m771-235l-407-500-205 232c-21 24-16 59 11 78 26 18 65 14 86-9l104-118 312 382c20 25 58 30 86 12 27-17 34-52 13-77z" horiz-adv-x="1000" />
<glyph glyph-name="radio-unchecked" unicode="&#xe825;" d="m500 805c-251 0-455-204-455-455 0-252 204-456 455-456 251 0 455 204 455 456 0 251-204 455-455 455z m0-808c-195 0-353 158-353 353 0 194 158 352 353 352 195 0 353-158 353-352 0-195-158-353-353-353z" horiz-adv-x="1000" />
<glyph glyph-name="checkbox-unchecked" unicode="&#xe826;" d="" horiz-adv-x="1000" />
<glyph glyph-name="info" unicode="&#xe827;" d="m823 671c-177 177-465 177-643 0-178-178-178-466 0-644 178-178 466-178 643 0 178 177 178 466 0 644z m-328 54c48 0 87-39 87-87 0-49-39-88-87-88-49 0-88 39-88 88 0 49 38 87 88 87z m139-640c0-19-8-28-27-28h-224c-19 0-28 9-28 28v57c0 18 9 27 28 27h41v242h-42c-18 0-28 8-28 27v57c0 19 10 27 28 27h157c18 0 27-8 27-27v-326h41c19 0 27-9 27-27v-57z" horiz-adv-x="1000" />
<glyph glyph-name="star" unicode="&#xe828;" d="m359 506c-104-16-209-33-314-49 45-45 89-91 133-136 32-32 63-65 95-97-18-109-36-219-54-329 94 52 187 104 281 156 35-20 71-40 107-59 58-33 116-65 174-97-18 110-35 220-53 329 31 32 63 65 94 97 44 45 89 91 133 136-105 16-209 33-314 49-12 24-23 48-34 73-36 75-72 150-107 226-47-100-94-200-141-299" horiz-adv-x="1000" />
<glyph glyph-name="Conference" unicode="&#xe829;" d="m211 65c7-61 13-122 20-182 2-23 13-33 35-33 32 0 64 0 95 0 64 0 127 0 191 0 19 0 31 10 33 28 3 25 6 51 8 77 7 63 14 127 20 190 2 21 4 42 6 63h-422c5-48 9-96 14-143m575 274c-12 0-23 0-35 0 0 6 0 10 0 15-4 18-7 37-12 54-2 7-3 11 2 17 12 16 12 38 1 55-11 17-31 25-50 21-24-6-40-26-39-50 2-24 19-42 44-46 4-1 9-2 11-5 11-19 11-39 11-61-3 0-6 0-9 0-153 0-306 0-459 0-74 0-147 0-221 0-19 0-29-11-29-30-1-8-2-16 0-23 1-7 3-15 8-20 26-27 53-54 80-80 5-4 12-9 19-9 18-1 37 0 56 0 1 2 1 3 1 4-1 12-2 25-4 38-2 18 3 23 21 23 99 0 198 0 297 0 54 0 107 0 160 0 12 0 17-5 16-18 0-3-1-7-1-11-1-12-2-24-3-36 18 0 34 0 51-1 11 0 20 4 28 12 20 21 42 42 62 63 28 29 23 16 24 57 0 20-11 31-30 31m-146 34c0 0 4 94-9 113-14 22-61 36-107 55-46 19-57 26-57 26l-1 45c0 0 18 13 23 55 11-3 22 16 23 26 1 10-2 37-15 35 3 20 5 39 4 49-4 35-39 73-93 73-54 0-90-38-93-73-1-10 1-29 4-49-14 2-16-25-15-35 1-10 12-29 23-26 5-42 23-55 23-55l-1-45c0 0-11-7-57-26-47-19-94-33-108-55-12-19-8-113-8-113h464z" horiz-adv-x="816" />
<glyph glyph-name="Meeting" unicode="&#xe82a;" d="m769 180c1-1 1-1 1-2 15-23 11-135 11-135h-555c0 0-5 112 10 135 1 1 1 1 2 2h-237c0 0-4 80 7 97 12 19 52 30 92 47 40 16 49 22 49 22l1 38c0 0-15 12-20 48-9-3-19 14-20 22 0 9 2 32 13 30-2 17-4 33-3 42 3 30 33 63 79 63 47 0 77-33 80-63 1-9-1-25-3-42 11 2 13-21 13-30-1-8-11-25-20-22-5-36-20-48-20-48l1-38c0 0 9-6 49-22 40-17 80-28 92-47 2-4 4-11 5-20 29 13 37 18 37 18l1 53c0 0-21 16-27 66-13-4-27 20-28 32-1 12 2 44 18 41-3 24-6 47-5 58 5 43 47 88 111 88 65 0 107-45 111-88 2-11-1-34-4-58 16 3 18-29 18-41-1-12-15-36-28-32-6-50-27-66-27-66l1-53c0 0 6-4 28-14 1 7 3 13 5 16 12 19 52 30 92 47 39 16 49 22 49 22l0 38c0 0-15 12-19 48-10-3-19 14-20 22 0 9 1 32 13 30-3 17-4 33-3 42 2 30 33 63 79 63 47 0 77-33 80-63 0-9-1-25-4-42 12 2 14-21 13-30 0-8-10-25-19-22-5-36-20-48-20-48l0-38c0 0 10-6 50-22 39-17 80-28 92-47 10-17 7-97 7-97h-228z" horiz-adv-x="1000" />
<glyph glyph-name="Party" unicode="&#xe82b;" d="m901 691c7-18 14-30 35-27-15-12-19-25-12-42-14 8-28 14-43-1 9 19 2 31-13 41 20-2 28 9 33 29m-151 73c13 0 25 1 39 2 7-34 0-66-18-96-1-2-2-3-3-5-14-20-19-22-45-14 33 33 42 70 27 113m-208-156c17 12 16 28 11 46-1 1 0 3-1 7 22-19 41-13 61 5-1-12 0-21-1-29-1-6 0-10 4-13 7-5 14-11 22-19-10-2-17-4-25-5-8-1-12-4-15-12-2-7-6-14-10-24-5 9-9 16-13 23-3 6-6 9-14 9-8 0-16 2-26 4 3 4 5 6 7 8m-137-564l-18 23-384-140-26 33 222 343 94-118 81-102-193 242 38 57 250-314-64-24z m-7 234c9 5 21 8 31 9 6 0 12-9 19-13-1-2-1-3-2-4-22 3-35-11-47-24-1 0-1 0-2 0-18 12-18 20 1 32m-3 97c6 4 17 1 19-6 2-6 0-12 0-17-11-5-19-5-24 2-4 7-2 18 5 21m101-220c-2-6-5-11-8-16-14 12-28 24-45 38 0 5 6 8 12 5 14-5 27-13 40-20 2 0 2-5 1-7m-24 76c3 3 9 2 14 3 1-2 2-3 3-4-1-5-1-11-4-14-3-2-11-1-13 2-2 3-3 11 0 13m5 103c-6 3-11 4-17 7 9 25 24 44 51 52 2-3 3-6 5-9-19-13-38-23-39-50m-7 119c4-1 10 0 12-2 3-2 1-8 2-16-8 2-14 2-15 5-2 3 0 9 1 13m32 59c-17-4-35-2-52 2-12 2-24 1-36-1-5 0-11-6-14-11-5-12-9-25-13-37-16-1-33-2-52-3 2 18 5 36 17 51 10 11 22 15 37 13 22-4 44-7 65-9 25-2 39 13 35 37-4 25-21 42-41 55-9 6-20 11-31 16-11 4-18 13-18 24 0 7 7 17 13 20 18 8 38 13 57 20 16 7 26 0 34-14 3-5 6-10 10-17-6 0-10 0-15-1-10-1-20-2-30-5-12-4-15-11-14-24 10-4 21-7 32-11 24-9 35-29 41-53 0-3 1-7 1-10 5-19-7-37-26-42m42-38c30 21 60 43 92 61 29 17 62 20 95 23 7 1 15-1 22-3 3-1 5-5 6-7 1-7 2-14 3-21-84 4-162-11-219-80-12 13-13 18 1 27m144-21c-29-3-51-18-76-32 5 13 9 26 12 38 21 4 39 8 59 12 2-5 3-11 5-18m-39-321c-21 4-42 7-62 10-11 2-11 11-11 20 1 5 2 9 3 16 24-2 47-3 72-5 0-13-1-27-2-41m21 145c-6-5-17-5-19 2-2 5-1 13 2 18 5 6 13 5 20 0 5-5 3-15-3-20m116 45c-18-16-41-16-63-10-23 6-44 14-63 30-13 11-29 9-45-4-10-8-19-19-29-30-10 4-21 8-34 13 7 19 19 36 36 50 23 19 65 12 88-4 21-16 44-21 70-16 16 4 28 20 31 41 1 5 2 10 3 16 6-3 13-7 20-11 7-3 14-5 22-8-6-26-16-49-36-67m139 127c-7 3-14 8-21 8-7 0-15-5-24-9 0 9 3 17 0 23-2 7-10 11-18 19 20 0 34 5 36 27 7-19 19-26 38-24-15-13-20-26-11-44m89 180c-9-2-14-8-12-20 9-56-35-83-77-82-23 1-46 2-64 18-11 11-22 24-31 36-15 20-25 20-40 1-5-7-9-14-13-21-5-7-11-7-18-2-13 11-14 18-3 31 3 3 6 7 9 10 29 28 60 27 87-4 9-11 18-23 29-32 28-23 54-20 83 2 18 13 19 30 5 47-11 15-11 15 3 29 17 16 38 22 60 17 8-1 15-12 24-20-17-4-29-6-42-10m-191-42c1 1 2 2 2 3 9 15 13 31 9 49-7-1-13-1-20-1 8-22 3-42-14-58 14-5 16-4 23 7m67-76c-1-12-8-14-18-14 4-4 8-7 9-10 1-3 0-8 0-12 5 2 9 5 12 5 4 0 7-3 11-5-4 10-2 17 6 23-10-1-16 3-20 13m-8 53c7 8 14 5 22 1-4 8-2 15 6 21-11-1-15 5-18 14-3-10-7-16-17-15 7-5 11-11 7-21" horiz-adv-x="1000" />
<glyph glyph-name="wedding" unicode="&#xe82c;" d="m943 656c-29 7-56 15-84 22 21 20 41 40 61 59 7-26 15-52 23-81m-158-99c7 11 13 22 20 34 3 6 7 12 11 18 7 12 14 24 21 35 5 8 9 15 13 22 1 1 3 2 4 2 27-7 54-14 81-21 0 0 1-1 2-1-55-38-111-75-166-113 0 0 0 1-1 1 5 8 10 15 15 23m-18 10c-4 43-9 85-13 127 29-7 57-15 86-22-25-35-48-69-73-105m146 179c-21-20-42-39-62-59-7 26-14 53-22 81 28-7 55-14 84-22m-72-63c-28 7-55 14-84 21 21 21 42 40 62 60 7-27 15-54 22-81m-30 90c-20-20-40-41-61-61-7 27-15 55-22 83 28-7 55-15 83-22m-94 19c8-28 15-55 23-83-28 7-55 14-83 22 20 20 40 40 60 61m-30-81c17-4 34-8 51-13 3 0 5-1 5-5 1-50 3-101 4-151 0-1 0-2-1-3-30 60-59 120-90 181 11-3 21-6 31-9m-122-141c13 6 26 13 40 17 23 8 47 14 71 16 6 0 8-1 11-6 8-17 16-34 25-50 0-1 0-1 1-3-26 2-50-2-74-7-9-2-17-6-26-9-3-2-4-2-7 1-9 8-18 16-28 24-6 5-12 8-19 13 2 2 4 3 6 4m19-568c-13-11-26-22-41-31-14-9-30-16-46-23-49-22-101-32-155-29-26 1-51 6-76 13-18 5-34 11-50 19-12 5-23 11-34 17-10 7-21 13-31 20-12 10-25 21-36 32-12 12-23 25-33 38-10 13-18 28-27 42-11 19-19 40-26 60-4 15-7 31-10 47-5 21-6 42-6 63 0 31 5 61 14 91 5 14 10 29 16 42 6 16 14 31 23 46 8 14 19 26 29 39 7 9 15 19 24 27 14 12 28 24 43 35 16 12 34 21 53 30 25 12 51 21 79 26 39 7 78 8 118 2 19-3 38-7 57-14 15-5 30-10 45-18 8-5 17-9 25-14 13-8 26-17 39-26 16-14 32-29 46-46 7-10 15-19 22-29 12-18 23-37 32-58 9-21 17-42 21-65 7-34 10-69 6-103-3-24-6-48-14-72-7-19-13-39-24-57 0-1 0-1 0-1-1-2-2-6-4-7-2-1-5 1-8 2-19 4-37 9-54 19-4 2-5 3-2 7 12 19 20 40 26 61 13 42 15 84 7 127-3 19-9 37-16 55-4 12-10 23-16 34-9 17-21 32-33 46-15 18-32 33-52 46-14 8-28 18-44 24-24 10-49 18-76 21-25 2-50 3-75-1-21-3-42-9-62-16-19-7-36-17-52-28-9-6-18-12-26-19-9-9-18-17-27-26-8-10-15-20-22-30-4-5-7-9-9-14-6-10-11-20-16-30-5-13-9-26-13-39-9-29-12-59-10-89 2-21 6-42 12-62 5-17 12-31 19-46 8-17 18-32 29-47 8-10 17-19 26-28 14-13 29-25 45-35 59-36 123-49 191-38 13 2 25 7 38 10 15 3 29 10 42 17 9 5 19 10 28 16 8 6 16 12 24 18 2 1 5 0 6-1 8-4 15-9 23-13 12-5 24-10 36-15 2 0 3-1 6-2-8-7-16-14-24-20m403 262c-4-22-10-44-19-65-7-14-13-30-23-43-8-10-14-21-22-31-10-10-20-20-30-30-7-6-15-13-23-18-13-8-26-16-39-23-8-4-15-8-23-11-17-6-35-11-52-15-41-9-81-8-121 2-22 5-44 12-63 23-11 6-21 11-31 18-10 6-20 13-29 20-10 9-20 19-29 29-8 9-15 18-21 27-15 21-27 43-35 67-19 54-24 109-9 165 4 18 9 35 17 52 7 13 13 27 22 40 7 9 14 20 21 30 18-10 34-20 49-33-55-65-72-140-49-222 18-61 56-108 113-138 120-62 242-11 298 70 41 58 53 122 36 191-17 69-59 118-121 152 1 1 2 3 4 3 13 10 26 19 40 28 2 2 5 3 7 4 1 1 2 1 3 0 5-3 10-6 15-10 11-8 21-17 31-26 3-2 4-4 6-7 10-11 20-23 29-35 7-9 13-19 19-30 13-26 22-52 28-81 7-34 7-69 1-103" horiz-adv-x="1000" />
<glyph glyph-name="pin" unicode="&#xe82d;" d="m501 834c-134 0-335-61-335-305 0-122 268-548 335-670 67 122 335 548 335 670 0 244-201 305-335 305m0-411c-59 0-107 47-107 106 0 59 48 107 107 107s106-48 106-107c0-59-47-106-106-106" horiz-adv-x="1000" />
<glyph glyph-name="building" unicode="&#xe82e;" d="m494 549v204h-357v-766h-51v-52h817v614h-409z m-102-562h-153v102h153v-102z m51 204h-255v51h255v-51z m0 102h-255v51h255v-51z m0 103h-255v51h255v-51z m0 102h-255v51h255v-51z m0 102h-255v51h255v-51z m256-562h-103v102h103v-102z m0 153h-103v102h103v-102z m0 153h-103v102h103v-102z m153-306h-102v102h102v-102z m0 153h-102v102h102v-102z m0 153h-102v102h102v-102z" horiz-adv-x="1000" />
<glyph glyph-name="airoplan" unicode="&#xe82f;" d="m915 236l-323 237v152c0 42-41 167-83 167s-84-125-84-167v-152l-322-237c-7-5-11-14-11-23v-5c0-9 4-17 10-22 7-6 16-7 24-5l299 80v-53-180l-98-71c-8-6-13-14-13-24v-4c0-8 4-16 11-22 7-5 16-7 25-4l159 54 159-54c9-2 18 0 25 5 7 5 11 14 11 22v4c0 9-5 18-13 23l-99 72v179 53l300-80c8-2 17-1 24 5 6 5 10 13 10 22v5c0 9-4 18-11 23" horiz-adv-x="1000" />
<glyph glyph-name="australia" unicode="&#xe830;" d="m800-48c-5 0-7-2-11-3-1 0 0-4 0-4-20-2-35 7-52 19-2 1-7 1-7 0-3-8-4-19 0-25 5-8 8-15 12-23-2 1-4 0-4-2-1-15 10-25 16-37 4-7 13 0 19-1 0 10 5 14 12 21 2 1-2-9 8-11 0 11-1 17 5 25 1 2 3 0 4-2 4 11-1 19 5 30 4 6-2 14-7 13m57 87c-2-4-6-6-8-5-16 5-27-8-40-5-4 1-10 3-11 1-7-9-12-18-25-20-2-1 4-6 2-10-1-1-3-2-4-3 0 5-4 8-2 12-10-3-17 4-24 7-6 3-4 7 1 13 3 4-2 11-4 12-6 1-4-10-7-11-13-4-23-21-33-15-13 9-29 12-42 20l7 112c10-1 21-2 23-15 3-9 13-7 21-6 0-8 3-15 8-20 7-8 18-13 26-21 2-2 9 0 12-1 20-2 40-4 60-6 4-1 1-12 5-16 11-10 23-15 35-23m-460 176c-21-7-41-15-65-18-9-1-11-15-20-18-4-2-9-4-9-6-2-12-8-27-15-27-19-2-41-2-62-4-10-1-20-5-25-13-2-3-5-6-3-11-4 0-7 3-9 2-10-6-19-13-29-21-5-3-13 2-20-2-9-4-10 4-19 6-1-3-9 1-7-2-4 6-10 4-16 4 3 9-11 15-4 24 1 1 5-1 6 1 5 5 8 12 7 19-1 2-3 3-4 5 0 4 0 9 1 13 2 16-12 29-18 44-5 14-9 28-15 41-2 7-10 9-14 14-8 10-5 22-11 32-6 11-23 14-24 29-1 4 3 2 6 3 0-4 7-4 4-9 2 3 6-7 6 0-1 8-16 13-12 22 0 0 4 1 6-1 6-3 1-10 2-15 8 6 10-6 16-4-5 6-1 13-3 20-4 10-17 14-21 24-7 18-6 34-1 53 0 1-3 2-4 2-1 11 4 21 9 31 3-5 2-12 2-18 9 6 7 19 16 24 5 3 12 6 16 11 11 9 21 20 33 28 3 2-9-5-1-7 1 0 3 2 2 4 2-1 3-2 2-4 16 1 28 12 44 14 1 0 0 2-2 3 8 11 21 3 31 10 12 8 26 13 32 26 7 13 27 21 22 32-7 16-1 32 14 41 1 1 0 4 1 6 1 2 5 2 5 0 1-11 11-19 10-31 2 0 5 0 6 1 3 5-7 9-4 14 1 1 3 1 4 0 2 0 3-1 3-4h6c-1 8-8 12-15 14-5 2-3 10 2 12 2 1 7 2 8 0 4-3 9-4 14-4-2 9 6 11 9 18-4-1-8-6-11-4-2 3-2 9 2 12 7 6 12 13 16 20 4 6 11 10 17 14 2-3 0-7 4-9 1 6 2 8 0 13 8 3 5 11 9 12 15 3 27-10 36-20 5-5-5-17-1-27 0 9 9 14 11 22 4-2 7-1 11-2l13-459z m-13 459c1 0 1 0 2-1 4-3 8-4 12-5 3 0 2 6-2 8 3 2 2 5 1 6 0 2-4-2-4 3 0 12 7 21 12 31 1 1 6-1 8 1 2 2-4 7-2 10 3 3 5 7 4 11 3 0 7-6 9-2-5 3-1 7-2 11 5-3 6-14 12-10 3 2-4 13 1 12 12-2 30 4 44 4-6 4 1 10-3 13-5 5-13 5-21 6-3 1 3 5 2 8 6-6 12 0 17-4 3-2 8-7 12-3-1-15 18-10 28-11 6-1 5-8 5-13 0 8 7 7 13 9 1-9 10-12 15-8 4 3 9 10 13 5 2-2-3-8-1-9 4-2 3 9 8 7 5-1-1-8 3-10 4-3 5 3 8 4-1 3-4 5-6 7 3 1 6 3 8 2 1-1 0-4 1-4 4-4 12-7 8-11-5-4-7-11-9-16-3-3-6 1-10 0-7 0-14-16 0-18-8-6-9-16-16-21-4-3-10 4-13-3 0-1 1-3 2-4 2-1 5 0 6-1 1 0 1-2 1-4 6 2 5-2 9-6 2-2 5 0 6 2 3-12 17-10 21-22 0-1 7 1 10-1 9-4 17-9 26-14l-11-265-218 3-9 303z m470-572c-1 0-1 0-2 0-2 0-2 2-3 3-1 1-2 0-2 1l-9-7c0-1 0-2 0-2-1-3-1-6-1-9 0 0 1-1 1-2 1 0 1 1 2 1 1 0 0-2 0-2 0-1-1-2 0-3 1-2 2-4 4-4 1 0 0 1 1 1 0 1 2 2 2 4-1 1-1 2-1 3 1 1 0 2 1 3 0 0 1-1 2 0 0 0 0 1 0 1 0 2 0 5 0 7 1 2 4 3 6 3 0 0 0 1 0 1-1 0-1 0-1 1m3-63c-12 8-24 13-35 23-4 4-1 15-5 16-20 2-40 4-60 6-3 1-10-1-12 1-8 8-19 13-26 21-5 5-8 12-8 20-8-1-18-3-21 6-2 13-13 14-23 16l7 138 187-15c5 5 12 7 18 7 32 2 32-24 42-22 7-3 17 15 26 17 10 3 20-8 29 1 0-4 1-8 2-12-4 0-4-5-6-7-5-8-4-21-9-29-2-4-4-10-5-13-7-18-15-38-32-50-3-2-4-8-6-10-5-4-10-9-15-13-1-2-5 0-6-1-2-3 4-5 2-8-2-3-7-4-8-6-2-2 0-7-1-10-1-2-5-2-6-5-3-5-4-10-6-14-11-17-24-32-22-52 0-2 0-4-1-5m0 0c-12 8-24 13-35 23-4 4-1 15-5 16-20 2-40 4-60 6-3 1-10-1-12 1-8 8-19 13-26 21-5 5-8 12-8 20-8-1-18-3-21 6-2 13-13 14-23 16l7 138 187-15c5 5 12 7 18 7 32 2 32-24 42-22 7-3 17 15 26 17 10 3 20-8 29 1 0-4 1-8 2-12-4 0-4-5-6-7-5-8-4-21-9-29-2-4-4-10-5-13-7-18-15-38-32-50-3-2-4-8-6-10-5-4-10-9-15-13-1-2-5 0-6-1-2-3 4-5 2-8-2-3-7-4-8-6-2-2 0-7-1-10-1-2-5-2-6-5-3-5-4-10-6-14-11-17-24-32-22-52 0-2 0-4-1-5m-183 247l187-15c5 5 12 7 18 7 32 2 32-24 42-23 7-2 17 16 26 18 10 3 20-8 29 1-3 25 1 49-4 74 0 2-3 7-8 7 4 12-8 18-8 31 0-2-3-4-4-2-8 11-18 20-21 33-1 8 1 17 0 26-1 2-5 4-8 5 2-4 2-8 2-12-4 4-7 9-11 11-13 3-2-6-2-8-1 3-6 1-7 4-4 16-3 32-13 46-6 7-6 23-14 27-9 5-10 9-19 13 0-1-5 1-5 0 1 5-1 9-5 11-4 3-12 3-13 7-9 18-10 39-10 59 0 4-9 6-10 9-4 8-5 16-8 24-3 8 7 17-1 24-6 7-12 12-17 20-5-3-11-9-14-6-6 6-5 17-7 26-4 16-7 32-14 47-4 9-8 21-9 32-3 0-3-2-5-4-2 0-5 1-5 0-5-14-10-26-17-40-1-4 5-7 2-10-4-6-3-13-5-19-5-15 4-30 0-45-3-16-9-31-15-44-4-8-7-16-13-22-10-8-25-4-34 4-3 4-7 10-10 14-7 7-14 13-22 17l-11-265 68-1-5-81z m-277-71l-4 156 0 0 218-3 68-1-5-81-7-138-7-113c-5 3-9 6-12 9-4 5-8 8-11 13-7 10 3 19-1 29-1 2-5 4-6 7-2 8 2 21-5 22-10 1-17-8-28-5 12 10 13 27 4 40-5-9-8-18-14-26-5-7-11-2-17 2 5-2 8 2 10 5 7 7 4 17 10 27 6 10 12 28 2 40-1-10-6-21-12-27-10-11-23-19-31-33-2-3 3-6 3-8 0-4-8-7-9-2-2 8-1 17-4 24-7 12-14 22-25 31-2 2 1 7 0 8-3 9-12 18-20 16-9-2-15 6-23 4-5-2-12 6-18 8-18 7-37 2-54-3-1-1-1-1-2-1v0z" horiz-adv-x="1000" />
<glyph glyph-name="telephone" unicode="&#xe831;" d="m929 689c-77 65-178 129-426 129-249 0-350-64-426-129-42-35-71-61-71-116v-66c0-34 28-62 62-62h124c35 0 62 28 62 62 0 34 6 63 35 101 29 38 90 85 214 83 124 2 185-45 215-83 29-38 35-67 35-101 0-34 28-62 63-62h124c34 0 60 28 60 62v66c0 55-29 81-71 116m-426-431c-69 0-124-55-124-124s55-124 124-124c69 0 124 55 124 124s-55 124-124 124m217 187h-31v77c0 26-27 47-62 47-34 0-62-21-62-47v-77h-124v77c0 26-28 47-62 47-35 0-63-21-63-47v-77h-29c-20 0-40-11-51-28-48-72-168-261-168-345v-124c0-35 28-63 62-63h746c34 0 62 28 62 63v118c0 107-120 286-167 353-12 16-31 26-51 26m-217-497c-103 0-187 83-187 186 0 103 84 186 187 186 103 0 186-83 186-186 0-103-83-186-186-186" horiz-adv-x="1000" />
<glyph glyph-name="facebook" unicode="&#xe832;" d="m562 628c0 38 25 46 43 46h108v166l-149 1c-166 0-203-124-203-203v-111h-96v-171h96v-484h201v484h136l17 171h-153v101z" horiz-adv-x="1000" />
<glyph glyph-name="twitter" unicode="&#xe833;" d="m958 717c-38-23-81-39-126-48-36 38-87 62-144 62-109 0-198-88-198-198 0-15 2-30 5-45-164 9-310 87-408 207-17-29-27-63-27-99 0-69 35-130 88-165-32 1-63 10-89 25v-3c0-96 68-176 159-194-17-4-35-7-53-7-12 0-25 1-37 4 25-79 98-136 185-138-68-53-153-84-246-84-16 0-32 0-47 2 88-56 192-89 303-89 364 0 563 302 563 564 0 8 0 17 0 25 39 28 72 63 99 103-36-16-74-27-114-32 41 25 72 64 87 110" horiz-adv-x="1000" />
<glyph glyph-name="3-3" unicode="&#xe834;" d="m481 302c-15 13-32 24-47 39-34 32-34 58 0 91 16 16 35 29 50 45 68 71 63 179-12 242-2 2-3 4-8 12 60-19 86 17 115 55h-28c-80 0-161 1-242-2-30-1-62-9-91-20-83-32-124-106-117-198 7-78 61-138 145-157 20-4 41-6 64-9-17-40-12-77 19-108-41-5-80-8-118-15-46-9-87-27-121-59-27-26-38-59-47-92v-43c19-73 72-109 140-130 63-20 127-22 191-14 53 7 101 22 144 55 83 66 93 178 21 256-18 19-38 35-58 52m-175 143c-69 23-100 77-112 145-1 8-1 16-2 23-1 1-2 1-3 1 5 24 8 49 17 71 26 60 89 78 143 41 50-34 72-84 81-142 2-19 2-40 0-60-9-65-62-99-124-79m192-342c-6-55-39-88-88-105-31-10-64-13-96-20-47 4-90 15-126 44-65 52-66 135-4 189 66 56 178 65 250 17 45-29 70-70 64-125m298 669h-59v-113h-112v-59h114v-112h58v114h112v58h-113" horiz-adv-x="1000" />
<glyph glyph-name="newman-logo" unicode="&#xe835;" d="m459 347c0-70-40-127-89-127-49 0-89 57-89 127 0 70 40 126 89 126 49 0 89-56 89-126m273 0c0-70-39-127-88-127-49 0-89 57-89 127 0 70 40 126 89 126 49 0 88-56 88-126m-709 142c0 0-70-188 95-403 165-215 439-188 541-158 101 30 264 108 288 310 19 158-87 348-310 418-7 2-7 0-7 0s123-60 188-187c68-133 54-309-83-410-260-193-502-7-545 28-84 70-182 204-167 402m958-293c0 0 70 188-95 403-165 215-439 188-540 158-102-29-265-107-289-310-19-157 87-348 310-417 7-2 7-1 7-1s-123 61-188 187c-68 134-54 309 83 410 261 193 502 8 545-28 84-70 182-204 167-402" horiz-adv-x="1000" />
<glyph glyph-name="Newman" unicode="&#xe836;" d="m705 762c56-33 98-70 126-112 36-45 61-95 73-149 13-49 20-98 20-146v-322c0-38-13-70-38-96-26-27-54-40-85-40-35 0-65 13-89 40-25 30-37 62-37 96v322l-6 52c-3 22-10 43-21 62-12 20-30 37-54 51-23 14-55 21-93 21-39 0-71-8-96-22-14-8-23-15-30-21-6-7-13-16-21-27-8-12-14-23-18-32-3-10-5-20-7-32v-52-322c0-38-12-70-38-96-26-27-54-40-85-40-35 0-65 13-89 40-24 30-37 62-37 96v322c3 30 6 56 10 77 3 21 7 45 13 69 17 54 41 104 72 149 37 48 81 87 134 116 53 29 117 44 194 44 80 0 147-16 202-48" horiz-adv-x="1000" />
<glyph glyph-name="info-1" unicode="&#xe837;" d="m511 837c70 0 126-57 126-126 0-71-56-127-126-127-70 0-127 56-127 127 0 71 56 126 127 126m203-928c0-27-13-40-39-40h-326c-27 0-40 13-40 40v83c0 27 13 39 40 39h60v350h-61c-27 0-40 13-40 40v83c0 27 13 40 40 40h227c27 0 39-13 39-40v-473h61c26 0 39-12 39-39v-83z" horiz-adv-x="1000" />
<glyph glyph-name="help" unicode="&#xe838;" d="m109 403h-71c-25 0-44-20-44-45 0-24 19-43 44-43h71c24 0 44 19 44 43 0 25-20 45-44 45m853 0h-71c-25 0-44-20-44-44 0-25 19-44 44-44h71c24 0 44 19 44 44 0 24-20 44-44 44m-708 201c18 17 18 45 0 62l-50 50c-17 17-46 17-62 0-17-17-17-45 0-62l50-50c8-9 20-13 31-13 12 0 23 4 31 13m215 114c8-8 19-13 31-13 24 0 44 20 44 44v72c0 24-20 44-44 44-24 0-44-20-44-44v-72c0-11 4-22 13-31m401-33c0 12-4 23-12 31-17 17-46 17-63 0l-50-50c-8-8-13-19-13-31 0-12 5-23 13-31 8-9 19-13 31-13h0c12 0 23 4 31 13l51 50c8 8 12 19 12 31m-363-69c-162 0-294-131-294-293 0-102 55-197 143-251v-165h71l0 0c0-40 36-71 80-71 43 0 78 31 79 71h72v166c89 53 142 147 142 250 0 162-132 293-293 293m102-470l-40-23v-135h-125v135l-40 23c-64 38-103 104-103 177 0 113 92 205 206 205 113 0 205-92 205-205 0-73-38-139-103-177" horiz-adv-x="1000" />
<glyph glyph-name="SL" unicode="&#xe839;" d="m330 136c-43 0-78 6-108 18-30 12-55 28-76 48l56 83c15-15 34-28 57-38 22-11 48-16 76-16 18 0 33 2 43 8 10 6 16 14 16 24 0 10-6 16-18 21-11 4-26 9-43 12-18 4-36 8-56 12-20 5-39 12-57 22-17 9-31 22-43 38-12 17-17 38-17 64 0 18 3 34 10 50 8 16 18 30 32 42 14 12 31 22 52 29 20 7 44 11 70 11 68 0 124-19 168-58l-58-80c-17 15-37 25-58 33-21 7-42 11-63 11-16 0-27-3-34-8-7-5-11-12-11-21 0-9 6-15 18-20 11-4 26-8 43-12 17-3 36-8 56-13 20-5 39-12 56-21 18-9 32-22 44-38 11-16 17-37 17-62 0-21-4-40-11-57-8-17-19-32-33-44-15-12-33-21-54-28-22-6-47-10-74-10z m251 8v414h107v-321h166v-93h-273z" horiz-adv-x="1000" />
<glyph glyph-name="RFI" unicode="&#xe83a;" d="m245 153l-69 139h-55v-139h-107v414h208c22 0 43-3 61-11 18-7 33-17 45-29 12-13 22-27 28-44 6-17 10-35 10-54 0-18-3-34-8-48-5-14-11-26-19-36-8-10-17-18-26-25-10-7-20-11-30-15l85-152h-123z m-39 232c14 0 26 4 36 12 10 7 15 18 15 33 0 14-5 25-15 33-10 7-22 11-36 11h-85v-89h85z m250-232v414h303v-93h-197v-65h193v-93h-193v-163h-106z m392 0v414h107v-414h-107z" horiz-adv-x="1000" />
<glyph glyph-name="heart" unicode="&#xe83b;" d="m745 737c-15 1-28 2-41 2-100 0-149-44-204-110-55 66-104 110-204 110-13 0-26-1-41-2-87-9-188-89-200-242v-51c12-146 122-326 445-553 323 227 434 407 445 553v51c-12 153-113 233-200 242" horiz-adv-x="1000" />
<glyph glyph-name="back" unicode="&#xe83c;" d="m305-136v249l276 237-276 237v249l567-486" horiz-adv-x="1000" />
<glyph glyph-name="frwd" unicode="&#xe83d;" d="m699 590l-276-237 276-237v-249l-567 486 567 486" horiz-adv-x="1000" />
<glyph glyph-name="exhibitors" unicode="&#xe83e;" d="m796 711v-60l-664-181-120 60v-362l120 61 72-20-20-77c-12-49 17-98 66-110l177-45c7-2 15-3 22-3 42 0 78 28 88 68l18 71 241-65v-61l181-61v842l-181-57z m-318-654c-3-16-20-26-36-22l-178 45c-16 4-25 21-21 37l19 76 235-64-19-72z m318 292h-664v61l664 181v-242z" horiz-adv-x="1000" />
</font>
</defs>
</svg>
